<svg xmlns="http://www.w3.org/2000/svg" width="900" height="800" fill="none" viewBox="0 0 900 800">
  <path stroke="#1E1E1E" stroke-width="20" d="M843.208 400.002C843.208 615.35 667.846 790 451.432 790 235.019 790 59.656 615.35 59.656 400.002c0-215.348 175.363-389.998 391.776-389.998 216.414 0 391.776 174.65 391.776 389.998Z"/>
  <path stroke="#1E1E1E" stroke-width="20" d="M775.3 400.332c0 178.506-145.733 323.332-325.65 323.332-179.917 0-325.65-144.826-325.65-323.332S269.733 77 449.65 77C629.567 77 775.3 221.826 775.3 400.332ZM450.924 66.666V0m-.496 733.333V800M114.779 400.002h-67.13m805.559 0h-67.13M740.351 122.67l-47.468 47.14m-479.618-2.667-47.468-47.14m565.712 564.471-47.468-47.14m-454.665 13.333-47.468 47.141"/>
  <mask id="a" width="541" height="110" x="176" y="345" fill="#000" maskUnits="userSpaceOnUse">
    <path fill="#fff" d="M176 345h541v110H176z"/>
    <path d="M177.41 451v-3.3l8.7-1.95c2.2-.5 3.85-1.2 4.95-2.1 1.2-1 2.15-2.3 2.85-3.9l30.6-72.45-4.65-11.55c3.2-.1 5.9-.7 8.1-1.8 2.2-1.2 3.85-2.5 4.95-3.9 1.1-1.5 1.65-2.75 1.65-3.75h2.1l39.3 95.4c.5 1.2 1.3 2.1 2.4 2.7 1.1.6 2.85 1.15 5.25 1.65l7.65 1.65v3.3h-52.5v-3.3l7.65-1.65c2.2-.5 3.8-1.1 4.8-1.8 1.1-.8 1.65-1.85 1.65-3.15 0-.5-.1-1-.3-1.5-.1-.5-.25-1.05-.45-1.65l-26.7-66.9h3.3l-29.1 68.85-.3.9v.75c0 .9.35 1.7 1.05 2.4.7.7 1.85 1.2 3.45 1.5l12.9 2.25v3.3h-39.3Zm31.65-33.9v-4.95h42.75v4.95h-42.75Zm189.083 36.15c-4.2 0-8.2-.75-12-2.25-3.8-1.5-7.5-3.9-11.1-7.2-3.6-3.3-7.2-7.6-10.8-12.9-2.5-3.8-5.05-7.5-7.65-11.1-2.6-3.7-5.5-6.75-8.7-9.15-3.1-2.5-6.85-3.75-11.25-3.75h-3.45v30.3c0 3.1.5 5.15 1.5 6.15s3.2 1.9 6.6 2.7l7.65 1.65v3.3h-52.5v-3.3l7.65-1.65c3.5-.8 5.7-1.7 6.6-2.7 1-1 1.5-3.05 1.5-6.15v-73.35c0-3.2-.5-5.3-1.5-6.3-.9-1-3.1-1.85-6.6-2.55l-7.65-1.65v-3.3h42c15 0 26.7 2.4 35.1 7.2 8.5 4.8 12.75 11.6 12.75 20.4 0 4.6-1.45 8.8-4.35 12.6-2.8 3.7-6.55 6.7-11.25 9s-9.85 3.75-15.45 4.35v.3c4.6.2 8.7 1.45 12.3 3.75 3.6 2.2 6.85 5.05 9.75 8.55 3 3.4 5.8 7.05 8.4 10.95 2.6 3.7 5.2 7.15 7.8 10.35 2.6 3.2 5.25 5.8 7.95 7.8 2.8 1.9 5.65 2.85 8.55 2.85v3.6c-4 1-7.95 1.5-11.85 1.5Zm-64.95-51.3h5.25c4.8 0 9.2-.8 13.2-2.4 4.1-1.7 7.35-4.2 9.75-7.5 2.4-3.4 3.6-7.7 3.6-12.9 0-7.9-2.5-13.9-7.5-18-4.9-4.1-11.9-6.15-21-6.15h-3.3v46.95Zm133.661 50.7c-7.2 0-14.2-1.15-21-3.45-6.7-2.3-12.8-5.65-18.3-10.05-5.4-4.4-9.7-9.8-12.9-16.2-3.1-6.5-4.65-13.9-4.65-22.2 0-7.6 1.45-14.55 4.35-20.85 2.9-6.4 6.9-11.95 12-16.65 5.1-4.7 11.05-8.3 17.85-10.8 6.9-2.6 14.25-3.9 22.05-3.9 5.3 0 9.65.35 13.05 1.05 3.4.7 6.25 1.55 8.55 2.55 2.3.9 4.4 1.75 6.3 2.55 1.9.7 4 1.05 6.3 1.05 1.1 0 2-.05 2.7-.15.8-.2 1.65-.4 2.55-.6l.6.45c-.2 1-.45 2.05-.75 3.15-.2 1.1-.3 2.2-.3 3.3 0 3.1.2 6.1.6 9 .5 2.9.95 5.3 1.35 7.2l.75 2.7h-5.25c-2.1-5.8-4.85-10.7-8.25-14.7-3.4-4.1-7.4-7.2-12-9.3-4.5-2.1-9.6-3.15-15.3-3.15-5.4 0-10.25 1.25-14.55 3.75-4.2 2.4-7.75 5.75-10.65 10.05-2.9 4.3-5.15 9.3-6.75 15-1.5 5.7-2.25 11.8-2.25 18.3 0 6.4.65 12.45 1.95 18.15 1.3 5.6 3.35 10.55 6.15 14.85 2.8 4.3 6.5 7.65 11.1 10.05 4.7 2.4 10.35 3.6 16.95 3.6 2.3 0 5.25-.3 8.85-.9 3.6-.7 7.1-2.55 10.5-5.55v-22.5c0-3.2-.5-5.3-1.5-6.3-.9-1-3.1-1.85-6.6-2.55l-7.65-1.65v-3.3h49.95v3.3l-5.1 1.05c-3.4.7-5.6 1.6-6.6 2.7s-1.5 3.25-1.5 6.45v28.35l-.45.3c-1.3-.3-2.35-.5-3.15-.6-.7-.2-1.9-.3-3.6-.3-1.8 0-3.75.3-5.85.9-2 .5-4.2 1.15-6.6 1.95-2.9.9-6.25 1.75-10.05 2.55-3.7.9-8 1.35-12.9 1.35Zm110.437 0c-4.8 0-9.5-.8-14.1-2.4-4.5-1.7-8.6-4.05-12.3-7.05-3.6-3-6.45-6.55-8.55-10.65-2.1-4.2-3.15-8.8-3.15-13.8v-54.9c0-3.2-.5-5.3-1.5-6.3-.9-1-3.1-1.85-6.6-2.55l-7.65-1.65v-3.3h52.5v3.3l-7.65 1.65c-3.4.7-5.6 1.55-6.6 2.55-1 1-1.5 3.1-1.5 6.3V418c0 7.5 2.15 13.45 6.45 17.85 4.3 4.4 10.7 6.6 19.2 6.6 4.9 0 9.2-1 12.9-3 3.7-2.1 6.6-4.95 8.7-8.55 2.2-3.6 3.3-7.7 3.3-12.3v-54.75c0-2.5-.7-4.35-2.1-5.55-1.3-1.3-3.3-2.2-6-2.7l-10.95-2.25v-3.3h41.25v3.3l-8.7 1.95c-2.7.6-4.75 1.5-6.15 2.7-1.3 1.2-1.95 3.15-1.95 5.85v70.8c-1.6 0-3.05.65-4.35 1.95l-4.35 4.35c-1.6 1.7-3.6 3.45-6 5.25-2.3 1.8-5.4 3.35-9.3 4.65-3.8 1.2-8.75 1.8-14.85 1.8Zm103.748 0c-8.6 0-16-1.05-22.2-3.15-6.2-2.2-11.1-4.2-14.7-6 .8-4.4 1.15-8.95 1.05-13.65 0-4.8-.6-9.55-1.8-14.25h5.25c.5 6.2 2.05 11.75 4.65 16.65 2.7 4.8 6.35 8.6 10.95 11.4 4.7 2.7 10.3 4.05 16.8 4.05 2.9 0 5.9-.55 9-1.65 3.1-1.2 5.7-3.1 7.8-5.7 2.2-2.6 3.3-6 3.3-10.2 0-3.7-.8-6.75-2.4-9.15-1.5-2.4-4.25-4.6-8.25-6.6-3.9-2.1-9.45-4.35-16.65-6.75-9.1-3.1-16.05-6.8-20.85-11.1-4.8-4.4-7.2-10.6-7.2-18.6 0-5.2 1.25-10 3.75-14.4 2.6-4.5 6.4-8.1 11.4-10.8 5.1-2.8 11.3-4.2 18.6-4.2 4 0 7.25.4 9.75 1.2 2.6.8 4.8 1.65 6.6 2.55 1.5.7 2.85 1.35 4.05 1.95 1.2.5 2.45.75 3.75.75l4.8-.9.45.3c-.2 1-.35 2.2-.45 3.6-.1 1.4-.15 2.7-.15 3.9 0 3.1.2 6.15.6 9.15.5 2.9.95 5.3 1.35 7.2l.75 2.7h-4.05c-1.5-5.8-3.65-10.7-6.45-14.7-2.7-4.1-5.85-7.25-9.45-9.45-3.6-2.2-7.55-3.3-11.85-3.3-3.9 0-7.25.85-10.05 2.55-2.7 1.7-4.75 3.85-6.15 6.45-1.4 2.6-2.1 5.3-2.1 8.1 0 3.5.65 6.35 1.95 8.55 1.3 2.2 3.75 4.2 7.35 6 3.7 1.8 9 3.85 15.9 6.15 7.3 2.4 13.05 5 17.25 7.8 4.2 2.8 7.2 6 9 9.6 1.8 3.6 2.7 7.9 2.7 12.9 0 6.3-1.45 11.8-4.35 16.5-2.8 4.6-6.75 8.2-11.85 10.8-5.1 2.5-11.05 3.75-17.85 3.75Z"/>
  </mask>
  <path fill="#1E1E1E" d="M177.41 451v-3.3l8.7-1.95c2.2-.5 3.85-1.2 4.95-2.1 1.2-1 2.15-2.3 2.85-3.9l30.6-72.45-4.65-11.55c3.2-.1 5.9-.7 8.1-1.8 2.2-1.2 3.85-2.5 4.95-3.9 1.1-1.5 1.65-2.75 1.65-3.75h2.1l39.3 95.4c.5 1.2 1.3 2.1 2.4 2.7 1.1.6 2.85 1.15 5.25 1.65l7.65 1.65v3.3h-52.5v-3.3l7.65-1.65c2.2-.5 3.8-1.1 4.8-1.8 1.1-.8 1.65-1.85 1.65-3.15 0-.5-.1-1-.3-1.5-.1-.5-.25-1.05-.45-1.65l-26.7-66.9h3.3l-29.1 68.85-.3.9v.75c0 .9.35 1.7 1.05 2.4.7.7 1.85 1.2 3.45 1.5l12.9 2.25v3.3h-39.3Zm31.65-33.9v-4.95h42.75v4.95h-42.75Zm189.083 36.15c-4.2 0-8.2-.75-12-2.25-3.8-1.5-7.5-3.9-11.1-7.2-3.6-3.3-7.2-7.6-10.8-12.9-2.5-3.8-5.05-7.5-7.65-11.1-2.6-3.7-5.5-6.75-8.7-9.15-3.1-2.5-6.85-3.75-11.25-3.75h-3.45v30.3c0 3.1.5 5.15 1.5 6.15s3.2 1.9 6.6 2.7l7.65 1.65v3.3h-52.5v-3.3l7.65-1.65c3.5-.8 5.7-1.7 6.6-2.7 1-1 1.5-3.05 1.5-6.15v-73.35c0-3.2-.5-5.3-1.5-6.3-.9-1-3.1-1.85-6.6-2.55l-7.65-1.65v-3.3h42c15 0 26.7 2.4 35.1 7.2 8.5 4.8 12.75 11.6 12.75 20.4 0 4.6-1.45 8.8-4.35 12.6-2.8 3.7-6.55 6.7-11.25 9s-9.85 3.75-15.45 4.35v.3c4.6.2 8.7 1.45 12.3 3.75 3.6 2.2 6.85 5.05 9.75 8.55 3 3.4 5.8 7.05 8.4 10.95 2.6 3.7 5.2 7.15 7.8 10.35 2.6 3.2 5.25 5.8 7.95 7.8 2.8 1.9 5.65 2.85 8.55 2.85v3.6c-4 1-7.95 1.5-11.85 1.5Zm-64.95-51.3h5.25c4.8 0 9.2-.8 13.2-2.4 4.1-1.7 7.35-4.2 9.75-7.5 2.4-3.4 3.6-7.7 3.6-12.9 0-7.9-2.5-13.9-7.5-18-4.9-4.1-11.9-6.15-21-6.15h-3.3v46.95Zm133.661 50.7c-7.2 0-14.2-1.15-21-3.45-6.7-2.3-12.8-5.65-18.3-10.05-5.4-4.4-9.7-9.8-12.9-16.2-3.1-6.5-4.65-13.9-4.65-22.2 0-7.6 1.45-14.55 4.35-20.85 2.9-6.4 6.9-11.95 12-16.65 5.1-4.7 11.05-8.3 17.85-10.8 6.9-2.6 14.25-3.9 22.05-3.9 5.3 0 9.65.35 13.05 1.05 3.4.7 6.25 1.55 8.55 2.55 2.3.9 4.4 1.75 6.3 2.55 1.9.7 4 1.05 6.3 1.05 1.1 0 2-.05 2.7-.15.8-.2 1.65-.4 2.55-.6l.6.45c-.2 1-.45 2.05-.75 3.15-.2 1.1-.3 2.2-.3 3.3 0 3.1.2 6.1.6 9 .5 2.9.95 5.3 1.35 7.2l.75 2.7h-5.25c-2.1-5.8-4.85-10.7-8.25-14.7-3.4-4.1-7.4-7.2-12-9.3-4.5-2.1-9.6-3.15-15.3-3.15-5.4 0-10.25 1.25-14.55 3.75-4.2 2.4-7.75 5.75-10.65 10.05-2.9 4.3-5.15 9.3-6.75 15-1.5 5.7-2.25 11.8-2.25 18.3 0 6.4.65 12.45 1.95 18.15 1.3 5.6 3.35 10.55 6.15 14.85 2.8 4.3 6.5 7.65 11.1 10.05 4.7 2.4 10.35 3.6 16.95 3.6 2.3 0 5.25-.3 8.85-.9 3.6-.7 7.1-2.55 10.5-5.55v-22.5c0-3.2-.5-5.3-1.5-6.3-.9-1-3.1-1.85-6.6-2.55l-7.65-1.65v-3.3h49.95v3.3l-5.1 1.05c-3.4.7-5.6 1.6-6.6 2.7s-1.5 3.25-1.5 6.45v28.35l-.45.3c-1.3-.3-2.35-.5-3.15-.6-.7-.2-1.9-.3-3.6-.3-1.8 0-3.75.3-5.85.9-2 .5-4.2 1.15-6.6 1.95-2.9.9-6.25 1.75-10.05 2.55-3.7.9-8 1.35-12.9 1.35Zm110.437 0c-4.8 0-9.5-.8-14.1-2.4-4.5-1.7-8.6-4.05-12.3-7.05-3.6-3-6.45-6.55-8.55-10.65-2.1-4.2-3.15-8.8-3.15-13.8v-54.9c0-3.2-.5-5.3-1.5-6.3-.9-1-3.1-1.85-6.6-2.55l-7.65-1.65v-3.3h52.5v3.3l-7.65 1.65c-3.4.7-5.6 1.55-6.6 2.55-1 1-1.5 3.1-1.5 6.3V418c0 7.5 2.15 13.45 6.45 17.85 4.3 4.4 10.7 6.6 19.2 6.6 4.9 0 9.2-1 12.9-3 3.7-2.1 6.6-4.95 8.7-8.55 2.2-3.6 3.3-7.7 3.3-12.3v-54.75c0-2.5-.7-4.35-2.1-5.55-1.3-1.3-3.3-2.2-6-2.7l-10.95-2.25v-3.3h41.25v3.3l-8.7 1.95c-2.7.6-4.75 1.5-6.15 2.7-1.3 1.2-1.95 3.15-1.95 5.85v70.8c-1.6 0-3.05.65-4.35 1.95l-4.35 4.35c-1.6 1.7-3.6 3.45-6 5.25-2.3 1.8-5.4 3.35-9.3 4.65-3.8 1.2-8.75 1.8-14.85 1.8Zm103.748 0c-8.6 0-16-1.05-22.2-3.15-6.2-2.2-11.1-4.2-14.7-6 .8-4.4 1.15-8.95 1.05-13.65 0-4.8-.6-9.55-1.8-14.25h5.25c.5 6.2 2.05 11.75 4.65 16.65 2.7 4.8 6.35 8.6 10.95 11.4 4.7 2.7 10.3 4.05 16.8 4.05 2.9 0 5.9-.55 9-1.65 3.1-1.2 5.7-3.1 7.8-5.7 2.2-2.6 3.3-6 3.3-10.2 0-3.7-.8-6.75-2.4-9.15-1.5-2.4-4.25-4.6-8.25-6.6-3.9-2.1-9.45-4.35-16.65-6.75-9.1-3.1-16.05-6.8-20.85-11.1-4.8-4.4-7.2-10.6-7.2-18.6 0-5.2 1.25-10 3.75-14.4 2.6-4.5 6.4-8.1 11.4-10.8 5.1-2.8 11.3-4.2 18.6-4.2 4 0 7.25.4 9.75 1.2 2.6.8 4.8 1.65 6.6 2.55 1.5.7 2.85 1.35 4.05 1.95 1.2.5 2.45.75 3.75.75l4.8-.9.45.3c-.2 1-.35 2.2-.45 3.6-.1 1.4-.15 2.7-.15 3.9 0 3.1.2 6.15.6 9.15.5 2.9.95 5.3 1.35 7.2l.75 2.7h-4.05c-1.5-5.8-3.65-10.7-6.45-14.7-2.7-4.1-5.85-7.25-9.45-9.45-3.6-2.2-7.55-3.3-11.85-3.3-3.9 0-7.25.85-10.05 2.55-2.7 1.7-4.75 3.85-6.15 6.45-1.4 2.6-2.1 5.3-2.1 8.1 0 3.5.65 6.35 1.95 8.55 1.3 2.2 3.75 4.2 7.35 6 3.7 1.8 9 3.85 15.9 6.15 7.3 2.4 13.05 5 17.25 7.8 4.2 2.8 7.2 6 9 9.6 1.8 3.6 2.7 7.9 2.7 12.9 0 6.3-1.45 11.8-4.35 16.5-2.8 4.6-6.75 8.2-11.85 10.8-5.1 2.5-11.05 3.75-17.85 3.75Z"/>
  <path fill="#1E1E1E" d="M177.41 451h-1v1h1v-1Zm0-3.3-.219-.976-.781.175v.801h1Zm8.7-1.95.219.976.003-.001-.222-.975Zm4.95-2.1.633.774.007-.006-.64-.768Zm2.85-3.9.916.401.005-.012-.921-.389Zm30.6-72.45.921.389.161-.38-.154-.382-.928.373Zm-4.65-11.55-.031-1-1.431.045.535 1.328.927-.373Zm8.1-1.8.447.894.016-.008.016-.008-.479-.878Zm4.95-3.9.786.618.011-.013.01-.014-.807-.591Zm1.65-3.75v-1h-1v1h1Zm2.1 0 .925-.381-.255-.619h-.67v1Zm39.3 95.4-.924.381.001.004.923-.385Zm2.4 2.7.479-.878-.479.878Zm5.25 1.65.211-.978-.007-.001-.204.979Zm7.65 1.65h1v-.807l-.789-.171-.211.978Zm0 3.3v1h1v-1h-1Zm-52.5 0h-1v1h1v-1Zm0-3.3-.211-.978-.789.171v.807h1Zm7.65-1.65.211.978.011-.003-.222-.975Zm4.8-1.8.574.819.007-.005.007-.005-.588-.809Zm1.35-4.65-.98.196.018.09.034.085.928-.371Zm-.45-1.65.949-.316-.009-.028-.011-.027-.929.371Zm-26.7-66.9v-1h-1.476l.547 1.371.929-.371Zm3.3 0 .921.389.587-1.389h-1.508v1Zm-29.1 68.85-.921-.389-.015.036-.013.037.949.316Zm-.3.9-.949-.316-.051.154v.162h1Zm4.5 4.65-.184.983.012.002.172-.985Zm12.9 2.25h1v-.841l-.828-.144-.172.985Zm0 3.3v1h1v-1h-1Zm-7.65-33.9h-1v1h1v-1Zm0-4.95v-1h-1v1h1Zm42.75 0h1v-1h-1v1Zm0 4.95v1h1v-1h-1Zm-73.4 33.9v-3.3h-2v3.3h2Zm-.781-2.324 8.7-1.95-.438-1.952-8.7 1.95.438 1.952Zm8.703-1.951c2.271-.516 4.091-1.262 5.361-2.301l-1.266-1.548c-.93.761-2.41 1.415-4.538 1.899l.443 1.95Zm5.368-2.307c1.333-1.11 2.372-2.542 3.126-4.267l-1.832-.802c-.645 1.475-1.507 2.643-2.574 3.533l1.28 1.536Zm3.131-4.279 30.6-72.45-1.842-.778-30.6 72.45 1.842.778Zm30.607-73.212-4.65-11.55-1.855.746 4.65 11.55 1.855-.746Zm-5.547-10.177c3.303-.104 6.154-.724 8.516-1.906l-.894-1.788c-2.038 1.018-4.587 1.598-7.684 1.694l.062 2Zm8.548-1.922c2.274-1.24 4.047-2.619 5.257-4.16l-1.572-1.236c-.99 1.259-2.517 2.48-4.643 3.64l.958 1.756Zm5.278-4.187c1.132-1.544 1.843-3.011 1.843-4.341h-2c0 .67-.389 1.703-1.456 3.159l1.613 1.182Zm.843-3.341h2.1v-2h-2.1v2Zm1.176-.619 39.3 95.4 1.849-.762-39.3-95.4-1.849.762Zm39.301 95.404c.584 1.401 1.536 2.48 2.844 3.193l.958-1.756c-.892-.487-1.54-1.208-1.956-2.207l-1.846.77Zm2.844 3.193c1.234.673 3.102 1.246 5.525 1.751l.408-1.958c-2.377-.495-4.009-1.022-4.975-1.549l-.958 1.756Zm5.518 1.75 7.65 1.65.422-1.956-7.65-1.65-.422 1.956Zm6.861.672v3.3h2v-3.3h-2Zm1 2.3h-52.5v2h52.5v-2Zm-51.5 1v-3.3h-2v3.3h2Zm-.789-2.322 7.65-1.65-.422-1.956-7.65 1.65.422 1.956Zm7.661-1.653c2.237-.508 3.99-1.143 5.152-1.956l-1.147-1.638c-.839.587-2.286 1.152-4.448 1.644l.443 1.95Zm5.166-1.966c1.345-.978 2.062-2.322 2.062-3.959h-2c0 .963-.383 1.719-1.238 2.341l1.176 1.618Zm2.062-3.959a5.02 5.02 0 0 0-.371-1.871l-1.857.742c.156.391.228.766.228 1.129h2Zm-.319-1.696c-.11-.549-.272-1.14-.482-1.77l-1.898.632c.19.57.328 1.079.419 1.53l1.961-.392Zm-.502-1.825-26.7-66.9-1.858.742 26.7 66.9 1.858-.742ZM225.41 372.05h3.3v-2h-3.3v2Zm2.379-1.389-29.1 68.85 1.842.778 29.1-68.85-1.842-.778Zm-29.128 68.923v.002l-.001.001v.002l-.001.002v.002l-.001.001-.001.002v.002l-.001.002v.001l-.001.002-.001.002v.002l-.001.001v.002l-.001.002v.002l-.001.001-.001.002v.002l-.001.002v.001l-.001.002-.001.002v.002l-.001.001v.002l-.001.002-.001.002v.002l-.001.001v.002l-.001.002v.002l-.001.001-.001.002v.002l-.001.002v.001l-.001.002-.001.002v.002l-.001.001v.002l-.001.002v.002l-.001.001-.001.002v.002l-.001.002v.001l-.001.002-.001.002v.002l-.001.001v.002l-.001.002-.001.002v.001l-.001.002v.002l-.001.002v.002l-.001.001-.001.002v.002l-.001.002v.001l-.001.002-.001.002v.002l-.001.001v.002l-.001.002v.002l-.001.001-.001.002v.002l-.001.002v.001l-.001.002-.001.002v.002l-.001.001v.002l-.001.002-.001.002v.001l-.001.002v.002l-.001.002v.001l-.001.002-.001.002v.002l-.001.002v.001l-.001.002-.001.002v.002l-.001.001v.002l-.001.002v.002l-.001.001-.001.002v.002l-.001.002v.001l-.001.002-.001.002v.002l-.001.001v.002l-.001.002v.002l-.001.001-.001.002v.002l-.001.002v.001l-.001.002-.001.002v.002l-.001.001v.002l-.001.002-.001.002v.002l-.001.001v.002l-.001.002v.002l-.001.001-.001.002v.002l-.001.002v.001l-.001.002-.001.002v.002l-.001.001v.002l-.001.002v.002l-.001.001-.001.002v.002l-.001.002v.001l-.001.002-.001.002v.002l-.001.001v.002l-.001.002-.001.002v.002l-.001.001v.002l-.001.002v.002l-.001.001-.001.002v.002l-.001.002v.001l-.001.002-.001.002v.002l-.001.001v.002l-.001.002v.002l-.001.001-.001.002v.002l-.001.002v.001l-.001.002-.001.002v.002l-.001.001v.002l-.001.002-.001.002v.001l-.001.002v.002l-.001.002v.002l-.001.001-.001.002v.002l-.001.002v.001l-.001.002-.001.002v.002l-.001.001v.002l-.001.002v.002l-.001.001-.001.002v.002l-.001.002v.001l-.001.002-.001.002v.002l-.001.001v.002l-.001.002-.001.002v.001l-.001.002v.002l-.001.002v.001l-.001.002-.001.002v.002l-.001.002v.001l-.001.002-.001.002v.002l-.001.001v.002l-.001.002v.002l-.001.001-.001.002v.002l-.001.002V440l-.001.002-.001.002v.002l-.001.001v.002l-.001.002v.002l-.001.001-.001.002v.002l-.001.002v.001l-.001.002-.001.002v.002l-.001.001v.002l-.001.002-.001.002v.002l-.001.001v.002l-.001.002v.002l-.001.001-.001.002v.002l-.001.002v.001l-.001.002-.001.002v.002l-.001.001v.002l-.001.002v.002l-.001.001-.001.002v.002l-.001.002v.001l-.001.002-.001.002v.002l-.001.001v.002l-.001.002-.001.002v.002l-.001.001v.002l-.001.002v.002l-.001.001-.001.002v.002l-.001.002v.001l-.001.002-.001.002v.002l-.001.001v.002l-.001.002v.002l-.001.001-.001.002v.002l-.001.002v.001l-.001.002-.001.002v.002l-.001.001v.002l-.001.002-.001.002v.001l-.001.002v.002l-.001.002v.002l-.001.001-.001.002v.002l-.001.002v.001l-.001.002-.001.002v.002l-.001.001v.002l-.001.002v.002l-.001.001-.001.002v.002l-.001.002v.001l-.001.002-.001.002v.002l-.001.001v.002l-.001.002-.001.002v.001l-.001.002v.002l-.001.002v.001l-.001.002-.001.002v.002l-.001.002v.001l-.001.002-.001.002v.002l-.001.001v.002l-.001.002v.002l-.001.001-.001.002v.002l-.001.002v.001l-.001.002-.001.002v.002l-.001.001v.002l-.001.002v.002l-.001.001-.001.002v.002l-.001.002v.001l-.001.002-.001.002v.002l-.001.001v.002l-.001.002-.001.002v.002l-.001.001v.002l-.001.002v.002l-.001.001-.001.002v.002l-.001.002v.001l-.001.002-.001.002v.002l-.001.001v.002l-.001.002v.002l-.001.001-.001.002v.002l-.001.002v.001l-.001.002-.001.002v.002l-.001.001v.002l-.001.002-.001.002v.002l-.001.001v.002l-.001.002v.002l-.001.001-.001.002v.002l-.001.002v.001l-.001.002-.001.002v.002l-.001.001v.002l-.001.002v.002l-.001.001-.001.002v.002l-.001.002v.001l-.001.002-.001.002v.002l-.001.001v.002l-.001.002-.001.002v.001l-.001.002v.002l-.001.002v.002l-.001.001-.001.002v.002l-.001.002v.001l-.001.002-.001.002v.002l-.001.001v.002l-.001.002v.002l-.001.001-.001.002v.002l-.001.002v.001l-.001.002-.001.002v.002l-.001.001v.002l-.001.002-.001.002v.001l-.001.002v.002l-.001.002v.001l-.001.002-.001.002v.002l-.001.002v.001l-.001.002-.001.002v.002l-.001.001v.002l-.001.002v.002l-.001.001-.001.002v.002l-.001.002v.001l-.001.002-.001.002v.002l-.001.001v.002l-.001.002v.002l-.001.001-.001.002v.002l-.001.002v.001l-.001.002-.001.002v.002l-.001.001v.002l-.001.002-.001.002 1.898.632v-.002l.001-.001.001-.002v-.002l.001-.002v-.001l.001-.002.001-.002v-.002l.001-.001v-.002l.001-.002v-.002l.001-.001.001-.002v-.002l.001-.002v-.001l.001-.002.001-.002v-.002l.001-.001v-.002l.001-.002v-.002l.001-.001.001-.002v-.002l.001-.002v-.002l.001-.001.001-.002v-.002l.001-.002v-.001l.001-.002.001-.002v-.002l.001-.001v-.002l.001-.002v-.002l.001-.001.001-.002v-.002l.001-.002v-.001l.001-.002.001-.002v-.002l.001-.001v-.002l.001-.002v-.002l.001-.001.001-.002v-.002l.001-.002v-.001l.001-.002.001-.002v-.002l.001-.002v-.001l.001-.002.001-.002v-.002l.001-.001v-.002l.001-.002v-.002l.001-.001.001-.002v-.002l.001-.002v-.001l.001-.002.001-.002v-.002l.001-.001v-.002l.001-.002v-.002l.001-.001.001-.002v-.002l.001-.002v-.001l.001-.002.001-.002v-.002l.001-.001v-.002l.001-.002.001-.002v-.002l.001-.001v-.002l.001-.002v-.002l.001-.001.001-.002v-.002l.001-.002v-.001l.001-.002.001-.002v-.002l.001-.001v-.002l.001-.002v-.002l.001-.001.001-.002v-.002l.001-.002v-.001l.001-.002.001-.002v-.002l.001-.001v-.002l.001-.002v-.002l.001-.001.001-.002v-.002l.001-.002v-.002l.001-.001.001-.002v-.002l.001-.002v-.001l.001-.002.001-.002v-.002l.001-.001v-.002l.001-.002v-.002l.001-.001.001-.002v-.002l.001-.002v-.001l.001-.002.001-.002v-.002l.001-.001v-.002l.001-.002v-.002l.001-.001.001-.002v-.002l.001-.002v-.002l.001-.001.001-.002v-.002l.001-.002v-.001l.001-.002.001-.002v-.002l.001-.001v-.002l.001-.002v-.002l.001-.001.001-.002v-.002l.001-.002v-.001l.001-.002.001-.002v-.002l.001-.001v-.002l.001-.002v-.002l.001-.001.001-.002v-.002l.001-.002v-.001l.001-.002.001-.002v-.002l.001-.002v-.001l.001-.002.001-.002v-.002l.001-.001v-.002l.001-.002v-.002l.001-.001.001-.002v-.002l.001-.002v-.001l.001-.002.001-.002v-.002l.001-.001v-.002l.001-.002v-.002l.001-.001.001-.002v-.002l.001-.002v-.001l.001-.002.001-.002v-.002l.001-.001v-.002l.001-.002.001-.002v-.002l.001-.001v-.002l.001-.002v-.002l.001-.001.001-.002v-.002l.001-.002v-.001l.001-.002.001-.002v-.002l.001-.001v-.002l.001-.002v-.002l.001-.001.001-.002v-.002l.001-.002v-.001l.001-.002.001-.002v-.002l.001-.001v-.002l.001-.002v-.002l.001-.001.001-.002v-.002l.001-.002v-.002l.001-.001.001-.002v-.002l.001-.002v-.001l.001-.002.001-.002v-.002l.001-.001v-.002l.001-.002v-.002l.001-.001.001-.002v-.002l.001-.002v-.001l.001-.002.001-.002v-.002l.001-.001v-.002l.001-.002v-.002l.001-.001.001-.002v-.002l.001-.002v-.002l.001-.001.001-.002v-.002l.001-.002v-.001l.001-.002.001-.002v-.002l.001-.001v-.002l.001-.002v-.002l.001-.001.001-.002v-.002l.001-.002v-.001l.001-.002.001-.002v-.002l.001-.001v-.002l.001-.002v-.002l.001-.001.001-.002v-.002l.001-.002v-.001l.001-.002.001-.002v-.002l.001-.002v-.001l.001-.002.001-.002v-.002l.001-.001v-.002l.001-.002v-.002l.001-.001.001-.002v-.002l.001-.002v-.001l.001-.002.001-.002v-.002l.001-.001v-.002l.001-.002v-.002l.001-.001.001-.002v-.002l.001-.002v-.001l.001-.002.001-.002v-.002l.001-.001v-.002l.001-.002.001-.002v-.002l.001-.001v-.002l.001-.002v-.002l.001-.001.001-.002v-.002l.001-.002v-.001l.001-.002.001-.002v-.002l.001-.001v-.002l.001-.002v-.002l.001-.001.001-.002v-.002l.001-.002v-.001l.001-.002.001-.002v-.002l.001-.001v-.002l.001-.002v-.002l.001-.001.001-.002v-.002l.001-.002v-.002l.001-.001.001-.002v-.002l.001-.002v-.001l.001-.002.001-.002v-.002l.001-.001v-.002l.001-.002v-.002l.001-.001.001-.002v-.002l.001-.002v-.001l.001-.002.001-.002v-.002l.001-.001v-.002l.001-.002v-.002l.001-.001.001-.002v-.002l.001-.002v-.002l.001-.001.001-.002v-.002l.001-.002v-.001l.001-.002.001-.002v-.002l.001-.001v-.002l.001-.002v-.002l.001-.001.001-.002v-.002l.001-.002v-.001l.001-.002.001-.002v-.002l.001-.001v-.002l.001-.002v-.002l.001-.001.001-.002v-.002l.001-.002v-.001l.001-.002.001-.002v-.002l.001-.002v-.001l.001-.002.001-.002v-.002l.001-.001v-.002l.001-.002v-.002l.001-.001.001-.002v-.002l.001-.002v-.001l.001-.002.001-.002v-.002l.001-.001v-.002l.001-.002v-.002l.001-.001.001-.002v-.002l.001-.002v-.001l.001-.002.001-.002v-.002l.001-.001v-.002l.001-.002.001-.002v-.002l.001-.001v-.002l.001-.002v-.002l.001-.001.001-.002v-.002l.001-.002v-.001l.001-.002.001-.002v-.002l.001-.001v-.002l.001-.002v-.002l.001-.001.001-.002v-.002l.001-.002v-.001l.001-.002.001-.002v-.002l.001-.001v-.002l.001-.002v-.002l.001-.001.001-.002v-.002l.001-.002-1.898-.632Zm-.351 1.216v.75h2v-.75h-2Zm0 .75c0 1.193.476 2.24 1.343 3.107l1.414-1.414c-.533-.533-.757-1.086-.757-1.693h-2Zm1.343 3.107c.908.908 2.29 1.46 3.973 1.776l.368-1.966c-1.517-.284-2.434-.732-2.927-1.224l-1.414 1.414Zm3.985 1.778 12.9 2.25.344-1.97-12.9-2.25-.344 1.97Zm12.072 1.265v3.3h2v-3.3h-2Zm1 2.3h-39.3v2h39.3v-2Zm-6.65-32.9v-4.95h-2v4.95h2Zm-1-3.95h42.75v-2h-42.75v2Zm41.75-1v4.95h2v-4.95h-2Zm1 3.95h-42.75v2h42.75v-2Zm112.433 14.8-.835.55.004.006.004.006.827-.562Zm-7.65-11.1-.818.575.008.01.81-.585Zm-8.7-9.15-.627.778.013.011.014.011.6-.8Zm-14.7-3.75v-1h-1v1h1Zm1.5 36.45.707-.707-.707.707Zm6.6 2.7-.229.973.009.003.01.002.21-.978Zm7.65 1.65h1v-.807l-.789-.171-.211.978Zm0 3.3v1h1v-1h-1Zm-52.5 0h-1v1h1v-1Zm0-3.3-.21-.978-.79.171v.807h1Zm7.65-1.65.211.978.012-.003-.223-.975Zm6.6-2.7-.707-.707-.018.018-.018.02.743.669Zm0-85.8-.743.669.018.02.018.018.707-.707Zm-6.6-2.55-.21.978.007.001.007.002.196-.981Zm-7.65-1.65h-1v.807l.79.171.21-.978Zm0-3.3v-1h-1v1h1Zm77.1 7.2-.496.868.005.003.491-.871Zm8.4 33-.795-.607-.002.004.797.603Zm-11.25 9 .44.898-.44-.898Zm-15.45 4.35-.106-.994-.894.095v.899h1Zm0 .3h-1v.957l.957.042.043-.999Zm12.3 3.75-.538.843.008.005.009.005.521-.853Zm9.75 8.55-.77.638.01.012.011.012.749-.662Zm8.4 10.95-.832.555.007.01.007.01.818-.575Zm7.8 10.35.776-.631-.776.631Zm7.95 7.8-.595.804.017.012.017.011.561-.827Zm8.55 2.85h1v-1h-1v1Zm0 3.6.243.97.757-.189v-.781h-1Zm-76.8-49.8h-1v1h1v-1Zm18.45-2.4.372.929.011-.005-.383-.924Zm9.75-7.5.809.588.008-.011-.817-.577Zm-3.9-30.9-.641.767.007.006.634-.773Zm-24.3-6.15v-1h-1v1h1Zm64.95 97.25c-4.078 0-7.953-.728-11.632-2.18l-.735 1.86c3.92 1.548 8.045 2.32 12.367 2.32v-2Zm-11.632-2.18c-3.667-1.447-7.265-3.774-10.792-7.007l-1.351 1.474c3.673 3.367 7.475 5.84 11.408 7.393l.735-1.86Zm-10.792-7.007c-3.528-3.234-7.079-7.47-10.648-12.725l-1.655 1.124c3.631 5.345 7.28 9.709 10.952 13.075l1.351-1.474Zm-10.64-12.713a310.919 310.919 0 0 0-7.675-11.135l-1.621 1.17a307.797 307.797 0 0 1 7.625 11.065l1.671-1.1Zm-7.667-11.125c-2.653-3.775-5.624-6.904-8.919-9.375l-1.2 1.6c3.106 2.329 5.935 5.3 8.482 8.925l1.637-1.15Zm-8.891-9.353c-3.297-2.659-7.275-3.972-11.878-3.972v2c4.197 0 7.719 1.187 10.623 3.528l1.255-1.556Zm-11.878-3.972h-3.45v2h3.45v-2Zm-4.45 1v30.3h2v-30.3h-2Zm0 30.3c0 1.596.128 2.97.404 4.099.273 1.122.711 2.08 1.389 2.758l1.414-1.414c-.321-.322-.634-.889-.86-1.817-.225-.921-.347-2.122-.347-3.626h-2Zm1.793 6.857c.637.637 1.578 1.173 2.729 1.644 1.165.476 2.62.915 4.349 1.322l.458-1.946c-1.67-.393-3.015-.804-4.05-1.228-1.049-.429-1.708-.843-2.072-1.206l-1.414 1.414Zm7.097 2.971 7.65 1.65.421-1.956-7.65-1.65-.421 1.956Zm6.86.672v3.3h2v-3.3h-2Zm1 2.3h-52.5v2h52.5v-2Zm-51.5 1v-3.3h-2v3.3h2Zm-.789-2.322 7.65-1.65-.421-1.956-7.65 1.65.421 1.956Zm7.662-1.653c1.779-.407 3.262-.846 4.431-1.324 1.148-.47 2.089-1.015 2.69-1.682l-1.487-1.338c-.299.333-.908.738-1.96 1.168-1.031.422-2.399.833-4.119 1.226l.445 1.95Zm7.084-2.968c.679-.678 1.116-1.636 1.39-2.758.275-1.129.403-2.503.403-4.099h-2c0 1.504-.122 2.705-.346 3.626-.227.928-.539 1.495-.861 1.817l1.414 1.414Zm1.793-6.857v-73.35h-2v73.35h2Zm0-73.35c0-1.644-.127-3.054-.402-4.207-.272-1.142-.708-2.118-1.391-2.8l-1.414 1.414c.318.318.632.892.86 1.85.225.947.347 2.187.347 3.743h2Zm-1.756-6.969c-.607-.674-1.556-1.206-2.708-1.651-1.173-.453-2.659-.854-4.44-1.211l-.392 1.962c1.72.343 3.084.717 4.111 1.114 1.048.405 1.649.798 1.942 1.124l1.487-1.338Zm-7.133-2.859-7.65-1.65-.421 1.956 7.65 1.65.421-1.956Zm-6.861-.672v-3.3h-2v3.3h2Zm-1-2.3h42v-2h-42v2Zm42 0c14.914 0 26.416 2.39 34.604 7.068l.993-1.736c-8.613-4.922-20.51-7.332-35.597-7.332v2Zm34.609 7.071c8.227 4.646 12.241 11.135 12.241 19.529h2c0-9.206-4.486-16.317-13.258-21.271l-.983 1.742Zm12.241 19.529c0 4.372-1.372 8.36-4.145 11.993l1.59 1.214c3.028-3.967 4.555-8.379 4.555-13.207h-2Zm-4.147 11.997c-2.694 3.559-6.315 6.465-10.892 8.705l.879 1.796c4.823-2.36 8.702-5.454 11.608-9.295l-1.595-1.206Zm-10.892 8.705c-4.588 2.245-9.624 3.665-15.117 4.254l.213 1.988c5.707-.611 10.971-2.091 15.783-4.446l-.879-1.796Zm-16.011 5.248v.3h2v-.3h-2Zm.957 1.299c4.438.193 8.365 1.396 11.805 3.594l1.077-1.686c-3.76-2.402-8.033-3.699-12.795-3.906l-.087 1.998Zm11.822 3.604c3.499 2.138 6.666 4.913 9.501 8.335l1.54-1.276c-2.965-3.578-6.297-6.503-9.998-8.765l-1.043 1.706Zm9.522 8.359a101.236 101.236 0 0 1 8.317 10.843l1.664-1.11a103.213 103.213 0 0 0-8.482-11.057l-1.499 1.324Zm8.331 10.863a187.166 187.166 0 0 0 7.842 10.406l1.552-1.262a184.358 184.358 0 0 1-7.757-10.294l-1.637 1.15Zm7.842 10.406c2.642 3.25 5.351 5.913 8.131 7.973l1.191-1.608c-2.62-1.94-5.211-4.477-7.77-7.627l-1.552 1.262Zm8.165 7.996c2.937 1.994 5.979 3.023 9.111 3.023v-2c-2.668 0-5.325-.871-7.988-2.677l-1.123 1.654Zm8.111 2.023v3.6h2v-3.6h-2Zm.758 2.63c-3.925.981-7.794 1.47-11.608 1.47v2c3.987 0 8.018-.511 12.093-1.53l-.485-1.94Zm-76.558-47.83h5.25v-2h-5.25v2Zm5.25 0c4.913 0 9.441-.819 13.572-2.472l-.743-1.856c-3.869 1.547-8.141 2.328-12.829 2.328v2Zm13.583-2.476c4.255-1.764 7.658-4.374 10.176-7.836l-1.617-1.176c-2.283 3.138-5.379 5.528-9.325 7.164l.766 1.848Zm10.184-7.847c2.546-3.607 3.783-8.122 3.783-13.477h-2c0 5.045-1.163 9.13-3.417 12.323l1.634 1.154Zm3.783-13.477c0-8.126-2.583-14.441-7.866-18.773l-1.268 1.546c4.718 3.868 7.134 9.553 7.134 17.227h2Zm-7.858-18.767C352.992 356.08 345.73 354 336.493 354v2c8.964 0 15.702 2.02 20.359 5.917l1.283-1.534ZM336.493 354h-3.3v2h3.3v-2Zm-4.3 1v46.95h2V355h-2Zm113.661 94.2-.325.946.005.001.32-.947Zm-18.3-10.05-.632.775.007.006.625-.781Zm-12.9-16.2-.903.43.004.009.004.008.895-.447Zm-.3-43.05.908.418.003-.005-.911-.413Zm29.85-27.45.345.939.008-.003-.353-.936Zm35.1-2.85.202-.979-.202.979Zm8.55 2.55-.399.917.017.007.018.007.364-.931Zm6.3 2.55-.388.922.021.008.021.008.346-.938Zm9 .9.141.99.051-.007.05-.013-.242-.97Zm2.55-.6.6-.8-.368-.276-.449.1.217.976Zm.6.45.98.196.124-.618-.504-.378-.6.8Zm-.75 3.15-.965-.263-.011.042-.008.042.984.179Zm.3 12.3-.991.137.003.016.002.017.986-.17Zm1.35 7.2-.979.206.007.031.008.031.964-.268Zm.75 2.7v1h1.316l-.353-1.268-.963.268Zm-5.25 0-.94.34.238.66h.702v-1Zm-8.25-14.7-.77.638.008.01.762-.648Zm-12-9.3-.423.906.008.004.415-.91Zm-29.85.6.496.868.007-.003-.503-.865Zm-10.65 10.05-.829-.559.829.559Zm-6.75 15-.963-.27-.002.008-.002.008.967.254Zm-.3 36.45-.975.222.001.004.974-.226Zm6.15 14.85-.838.546.838-.546Zm11.1 10.05-.463.887.008.004.455-.891Zm25.8 2.7.164.986.014-.002.013-.002-.191-.982Zm10.5-5.55.662.75.338-.299v-.451h-1Zm-1.5-28.8-.743.669.017.02.019.018.707-.707Zm-6.6-2.55-.211.978.007.001.008.002.196-.981Zm-7.65-1.65h-1v.807l.789.171.211-.978Zm0-3.3v-1h-1v1h1Zm49.95 0h1v-1h-1v1Zm0 3.3.202.979.798-.164v-.815h-1Zm-5.1 1.05.202.979-.202-.979Zm-6.6 2.7.74.673-.74-.673Zm-1.5 34.8.555.832.445-.297v-.535h-1Zm-.45.3-.225.974.421.097.359-.239-.555-.832Zm-3.15-.6-.275.962.074.021.077.009.124-.992Zm-9.45.6.242.97.017-.004.016-.004-.275-.962Zm-6.6 1.95.296.955.01-.003.01-.003-.316-.949Zm-10.05 2.55-.206-.979-.015.004-.015.003.236.972Zm-12.9.35a64.114 64.114 0 0 1-20.68-3.397l-.64 1.894a66.102 66.102 0 0 0 21.32 3.503v-2Zm-20.675-3.396a59.523 59.523 0 0 1-18-9.885l-1.25 1.562a61.547 61.547 0 0 0 18.6 10.215l.65-1.892Zm-17.993-9.879c-5.288-4.308-9.499-9.595-12.638-15.872l-1.789.894c3.262 6.523 7.65 12.036 13.163 16.528l1.264-1.55Zm-12.629-15.855c-3.027-6.347-4.553-13.596-4.553-21.77h-2c0 8.426 1.574 15.977 4.747 22.63l1.806-.86Zm-4.553-21.77c0-7.47 1.424-14.275 4.258-20.432l-1.816-.836c-2.966 6.443-4.442 13.538-4.442 21.268h2Zm4.261-20.437c2.845-6.28 6.766-11.72 11.767-16.328l-1.356-1.47c-5.2 4.792-9.278 10.452-12.233 16.972l1.822.826Zm11.767-16.328c4.999-4.607 10.835-8.14 17.517-10.596l-.69-1.878c-6.918 2.544-12.982 6.211-18.183 11.004l1.356 1.47Zm17.525-10.599c6.78-2.555 14.01-3.836 21.697-3.836v-2c-7.914 0-15.384 1.319-22.403 3.964l.706 1.872Zm21.697-3.836c5.264 0 9.54.348 12.848 1.029l.404-1.958c-3.492-.719-7.916-1.071-13.252-1.071v2Zm12.848 1.029c3.356.691 6.135 1.524 8.353 2.488l.798-1.834c-2.383-1.036-5.304-1.903-8.747-2.612l-.404 1.958Zm8.388 2.502c2.293.898 4.385 1.745 6.276 2.541l.776-1.844a264.919 264.919 0 0 0-6.324-2.559l-.728 1.862Zm6.318 2.557c2.025.746 4.244 1.112 6.646 1.112v-2c-2.198 0-4.179-.334-5.954-.988l-.692 1.876Zm6.646 1.112c1.124 0 2.076-.051 2.841-.16l-.283-1.98c-.634.091-1.483.14-2.558.14v2Zm2.942-.18a95.946 95.946 0 0 1 2.525-.594l-.434-1.952a95.65 95.65 0 0 0-2.576.606l.485 1.94Zm1.708-.77.6.45 1.2-1.6-.6-.45-1.2 1.6Zm.219-.546a46.004 46.004 0 0 1-.734 3.083l1.93.526a48.23 48.23 0 0 0 .765-3.217l-1.961-.392Zm-.753 3.167a19.372 19.372 0 0 0-.316 3.479h2c0-1.039.094-2.079.284-3.121l-1.968-.358Zm-.316 3.479c0 3.143.203 6.189.609 9.137l1.982-.274a64.72 64.72 0 0 1-.591-8.863h-2Zm.614 9.17c.502 2.907.954 5.32 1.357 7.236l1.957-.412a206.888 206.888 0 0 1-1.343-7.164l-1.971.34Zm1.372 7.298.003.01.003.011.003.01.003.011.003.01.003.011a.126.126 0 0 1 .003.01l.003.01.003.011.002.01.003.01.003.011.003.01.003.01.003.011a.126.126 0 0 1 .005.02l.003.01a.126.126 0 0 0 .003.01l.003.01.003.011a.03.03 0 0 1 .002.01l.003.01a.126.126 0 0 1 .003.01l.003.01.003.01.002.01.003.01.003.01a.126.126 0 0 1 .003.01l.002.01a.126.126 0 0 1 .003.01l.003.009.003.01.002.01.003.01.003.01.003.01a.126.126 0 0 0 .005.019l.003.01.002.009.003.01.003.01a.126.126 0 0 0 .005.019l.003.01.002.009.003.01.003.009.002.01.003.009.003.01.002.009a.126.126 0 0 1 .005.019l.003.009.003.01.002.009a834470344.346 834470344.346 0 0 0 .005.019l.003.009.003.009.002.009.003.01.002.009.003.009a834470344.346 834470344.346 0 0 1 .007.027l.003.01a.03.03 0 0 1 .002.009l.003.009.003.009a.03.03 0 0 0 .002.009l.003.009a.03.03 0 0 0 .002.009l.003.009a.03.03 0 0 0 .002.009l.002.008.003.009.002.009.003.009.002.009.003.009.002.008.003.009.002.009.002.009a.069.069 0 0 0 .003.008l.002.009.003.009.002.008.003.009.002.009.002.008.003.009.002.008.002.009a.069.069 0 0 0 .003.008l.002.009.002.008.003.009.002.008.002.009.003.008.002.008.002.009.003.008.002.008a.03.03 0 0 1 .002.008l.003.009a.03.03 0 0 0 .002.008l.002.008a.03.03 0 0 1 .002.008l.003.008.002.009a.019.019 0 0 1 .002.008.069.069 0 0 1 .003.008l.002.008.002.008.002.008.002.008.003.008.002.008.002.008.002.008.003.008.002.008.002.008.002.008a.019.019 0 0 1 .002.007l.002.008.003.008.002.008a.03.03 0 0 0 .002.008l.002.007.002.008.002.008a.019.019 0 0 1 .002.007l.003.008.002.008.002.007.002.008.002.007.002.008a.019.019 0 0 1 .002.007l.002.008a.019.019 0 0 1 .002.007l.002.008.003.007.002.008.002.007.002.008.002.007.002.007.002.008.002.007.002.007.002.007.002.008.002.007.002.007.002.007.002.007.002.008.002.007.002.007.002.007.002.007.002.007.002.007.002.007.002.007.001.007a.019.019 0 0 1 .002.007.014.014 0 0 1 .002.007.014.014 0 0 1 .002.007.014.014 0 0 1 .002.007l.002.006.002.007.002.007.002.007.002.007.001.006.002.007a.019.019 0 0 1 .002.007l.002.006.002.007.002.007.002.006.001.007.002.007.002.006.002.007.002.006.002.007.001.006a.014.014 0 0 1 .002.007l.002.006.002.006.001.007a.014.014 0 0 1 .002.006l.002.007.002.006.001.006a.014.014 0 0 1 .002.007l.002.006.002.006.001.006a.014.014 0 0 1 .002.006l.002.007.002.006.001.006.002.006.002.006.001.006a.014.014 0 0 1 .002.006l.002.006.001.006a.014.014 0 0 1 .002.006l.002.006.001.006a.014.014 0 0 1 .002.006l.002.006.001.006.002.006.002.006.001.006.002.006.001.005.002.006.002.006.001.006.002.005.001.006a.014.014 0 0 1 .002.006l.002.005.001.006.002.006.001.005.002.006.001.005.002.006.001.005.002.006.001.005.002.006.001.005.002.006.001.005.002.005.001.006.002.005.001.005.002.006.001.005.002.005.001.005.002.006.001.005.002.005.001.005.001.005.002.005.001.005.002.005.001.005.001.005.002.005.001.005.002.005.001.005.001.005.002.005.001.005.001.005.002.005.001.004.001.005.002.005.001.005.001.005.002.004.001.005.001.005.002.004.001.005.001.004.001.005.002.005.001.004.001.005.001.004.002.005.001.004.001.005.001.004.002.004.001.005.001.004.001.004.001.005.002.004.001.004.001.005.001.004.001.004.001.004.002.004.001.005.001.004.001.004.001.004.001.004.001.004.002.004.001.004.001.004.001.004.001.004.001.004.001.004.001.004.001.003a.008.008 0 0 1 .001.004.008.008 0 0 1 .001.004l.002.004.001.004.001.003.001.004.001.004.001.004.001.003.001.004.001.004.001.003.001.004.001.003.001.004.001.003.001.004.001.003.001.004.001.003.001.004v.003l.001.004.001.003.001.003.001.004.001.003.001.003.001.004.001.003.001.003.001.003.001.003v.004l.001.003.001.003.001.003.001.003.001.003.001.003v.003l.001.003.001.003.001.003.001.003.001.003v.003l.001.003.001.002.001.003v.003l.001.003.001.003.001.002.001.003v.003l.001.003.001.002.001.003v.003l.001.002.001.003v.002l.001.003.001.002.001.003v.002l.001.003.001.002v.003l.001.002.001.002v.003l.001.002.001.002v.003l.001.002v.002l.001.003.001.002v.002l.001.002v.002l.001.002.001.002v.003l.001.002v.002l.001.002v.002l.001.002.001.002v.002l.001.002v.001l.001.002v.002l.001.002v.002l.001.002v.001l.001.002v.002l.001.002v.001l.001.002v.002l.001.001v.004l.001.001v.002l.001.001v.002l.001.001v.003l.001.002v.001l.001.001v.003l.001.001v.003l.001.001v.003l.001.001v.002l.001.001v.003l.001.001v.002l.001.001v.003l.001.001v.002l.001.001v.004h.001v.003l.001.001v.003h.001v.003l.001.001v.003l.964-.268.963-.268v-.003h-.001v-.003l-.001-.001v-.003h-.001v-.004l-.001-.001v-.002l-.001-.001v-.003h-.001v-.003l-.001-.001v-.002l-.001-.002v-.002l-.001-.001v-.002l-.001-.002v-.002l-.001-.001v-.003l-.001-.001v-.003l-.001-.001v-.002l-.001-.001v-.003l-.001-.002v-.001l-.001-.002v-.001l-.001-.002v-.003l-.001-.002v-.001l-.001-.002v-.002l-.001-.001v-.002l-.001-.002v-.002l-.001-.001v-.002l-.001-.002v-.002l-.001-.002v-.002l-.001-.002v-.002l-.001-.002v-.002l-.001-.002-.001-.002v-.002l-.001-.002v-.002l-.001-.002-.001-.002v-.002l-.001-.002v-.003l-.001-.002-.001-.002v-.002l-.001-.003v-.002l-.001-.002-.001-.003v-.002l-.001-.002-.001-.003v-.002l-.001-.003-.001-.002v-.002l-.001-.003-.001-.002-.001-.003v-.003l-.001-.002-.001-.003v-.002l-.001-.003-.001-.003-.001-.002v-.003l-.001-.003-.001-.003-.001-.002v-.003l-.001-.003-.001-.003-.001-.003-.001-.003v-.002l-.001-.003-.001-.003-.001-.003-.001-.003-.001-.003v-.003l-.001-.003-.001-.003-.001-.003-.001-.003-.001-.004-.001-.003v-.003l-.001-.003-.001-.003-.001-.004-.001-.003-.001-.003-.001-.003-.001-.004-.001-.003-.001-.003-.001-.004v-.003l-.001-.003-.001-.004-.001-.003-.001-.004-.001-.003-.001-.004-.001-.003-.001-.004-.001-.003-.001-.004-.001-.004-.001-.003-.001-.004-.001-.004-.001-.003-.001-.004-.001-.004-.001-.004-.001-.003-.001-.004-.002-.004-.001-.004-.001-.004-.001-.004-.001-.003-.001-.004-.001-.004-.001-.004-.001-.004-.001-.004-.001-.004-.002-.004-.001-.004-.001-.005-.001-.004-.001-.004-.001-.004-.001-.004-.002-.004-.001-.004-.001-.005-.001-.004-.001-.004-.002-.005-.001-.004-.001-.004-.001-.005-.001-.004-.002-.004-.001-.005-.001-.004-.001-.005-.002-.004-.001-.005-.001-.004-.001-.005-.002-.004-.001-.005-.001-.004-.001-.005-.002-.005-.001-.004-.001-.005-.002-.005-.001-.005-.001-.004-.002-.005-.001-.005-.001-.005-.002-.004-.001-.005-.001-.005-.002-.005-.001-.005-.001-.005-.002-.005-.001-.005-.002-.005-.001-.005-.001-.005-.002-.005-.001-.005-.002-.005-.001-.005-.001-.005-.002-.006-.001-.005-.002-.005-.001-.005-.002-.005-.001-.006-.002-.005-.001-.005-.001-.006-.002-.005-.001-.005-.002-.006-.001-.005-.002-.005-.001-.006-.002-.005-.002-.006-.001-.005-.002-.006-.001-.005-.002-.006-.001-.006-.002-.005-.001-.006-.002-.006-.002-.005-.001-.006-.002-.006-.001-.005-.002-.006-.001-.006a.014.014 0 0 1-.002-.006l-.002-.006-.001-.005-.002-.006-.002-.006-.001-.006-.002-.006-.002-.006-.001-.006-.002-.006-.002-.006-.001-.006-.002-.006-.002-.006-.001-.006-.002-.006-.002-.006-.001-.006-.002-.007-.002-.006-.002-.006-.001-.006-.002-.007-.002-.006-.001-.006-.002-.006-.002-.007-.002-.006-.002-.006-.001-.007-.002-.006-.002-.007a.014.014 0 0 0-.002-.006l-.001-.007a.014.014 0 0 1-.002-.006l-.002-.007-.002-.006a.019.019 0 0 0-.002-.007l-.002-.006-.001-.007-.002-.007-.002-.006-.002-.007-.002-.007-.002-.006-.001-.007a.014.014 0 0 1-.002-.007.014.014 0 0 1-.002-.006l-.002-.007-.002-.007-.002-.007-.002-.007-.002-.007-.002-.007a.014.014 0 0 0-.002-.006l-.001-.007-.002-.007-.002-.007-.002-.007-.002-.007-.002-.007-.002-.007-.002-.007-.002-.008-.002-.007-.002-.007-.002-.007-.002-.007-.002-.007-.002-.008-.002-.007-.002-.007-.002-.007-.002-.008-.002-.007a.019.019 0 0 1-.002-.007l-.002-.008a.019.019 0 0 1-.002-.007l-.002-.007-.002-.008a.019.019 0 0 1-.002-.007l-.003-.008a.019.019 0 0 0-.002-.007l-.002-.008a.019.019 0 0 0-.002-.007l-.002-.008-.002-.007-.002-.008-.002-.008a.019.019 0 0 1-.002-.007l-.002-.008-.003-.008a.019.019 0 0 0-.002-.007l-.002-.008-.002-.008-.002-.008a.019.019 0 0 1-.002-.007l-.003-.008-.002-.008-.002-.008-.002-.008a.019.019 0 0 1-.002-.007l-.002-.008-.003-.008a.019.019 0 0 0-.002-.008l-.002-.008a.03.03 0 0 1-.002-.008l-.003-.008a.019.019 0 0 0-.002-.008.019.019 0 0 0-.002-.008l-.002-.008a.03.03 0 0 1-.002-.008l-.003-.009-.002-.008-.002-.008-.002-.008-.003-.008-.002-.008-.002-.009-.003-.008-.002-.008-.002-.008-.003-.009a.03.03 0 0 0-.002-.008l-.002-.008a.03.03 0 0 1-.002-.009l-.003-.008-.002-.009-.003-.008a.019.019 0 0 0-.002-.008l-.002-.009-.003-.008a.03.03 0 0 0-.002-.009.03.03 0 0 1-.002-.009.069.069 0 0 1-.003-.008l-.002-.009-.002-.008-.003-.009-.002-.009-.003-.008-.002-.009a.03.03 0 0 1-.002-.009.069.069 0 0 1-.005-.017l-.003-.009-.002-.009-.003-.008-.002-.009-.003-.009-.002-.009-.003-.009a.03.03 0 0 0-.002-.009l-.002-.009-.003-.009-.002-.009-.003-.009-.002-.009-.003-.009-.002-.009-.003-.009-.003-.009a.03.03 0 0 0-.002-.009l-.003-.009-.002-.009-.003-.009-.002-.01-.003-.009a.03.03 0 0 1-.002-.009l-.003-.009-.003-.01a.03.03 0 0 0-.002-.009l-.003-.009-.002-.01-.003-.009-.002-.009-.003-.01-.003-.009-.002-.01-.003-.009a.126.126 0 0 1-.003-.01l-.002-.009a.126.126 0 0 1-.003-.01l-.003-.009a.036.036 0 0 0-.002-.01l-.003-.009-.003-.01-.002-.01-.003-.009-.003-.01-.002-.01-.003-.009-.003-.01-.002-.01-.003-.01-.003-.009-.003-.01a.036.036 0 0 0-.002-.01l-.003-.01a.126.126 0 0 1-.003-.01l-.003-.01-.002-.01-.003-.009-.003-.01-.003-.01-.002-.01a.126.126 0 0 0-.003-.01.126.126 0 0 0-.003-.01l-.003-.011-.003-.01-.002-.01a.126.126 0 0 1-.003-.01l-.003-.01-.003-.01-.003-.01-.002-.011-.003-.01-.003-.01-.003-.01-.003-.011-.003-.01-.003-.01-.002-.011a.126.126 0 0 1-.003-.01l-.003-.01-.003-.011-.003-.01-.003-.011-.003-.01-.003-.011-.003-.01-.003-.011-1.927.536Zm1.714 1.432h-5.25v2h5.25v-2Zm-4.31.66c-2.133-5.893-4.939-10.902-8.428-15.008l-1.524 1.296c3.31 3.894 6.005 8.685 8.072 14.392l1.88-.68Zm-8.42-14.998c-3.491-4.21-7.61-7.406-12.355-9.572l-.83 1.82c4.455 2.034 8.336 5.038 11.645 9.028l1.54-1.276Zm-12.347-9.568c-4.651-2.17-9.899-3.244-15.723-3.244v2c5.575 0 10.528 1.026 14.877 3.056l.846-1.812Zm-15.723-3.244c-5.561 0-10.587 1.289-15.053 3.885l1.006 1.73c4.134-2.404 8.808-3.615 14.047-3.615v-2Zm-15.046 3.882c-4.343 2.481-8.004 5.941-10.983 10.359l1.658 1.118c2.821-4.182 6.26-7.422 10.317-9.741l-.992-1.736Zm-10.983 10.359c-2.968 4.4-5.259 9.5-6.884 15.289l1.926.54c1.575-5.611 3.783-10.511 6.616-14.711l-1.658-1.118Zm-6.888 15.305c-1.524 5.791-2.283 11.977-2.283 18.554h2c0-6.423.741-12.437 2.217-18.046l-1.934-.508Zm-2.283 18.554c0 6.468.657 12.593 1.975 18.372l1.95-.444c-1.282-5.621-1.925-11.596-1.925-17.928h-2Zm1.976 18.376c1.323 5.7 3.415 10.761 6.286 15.17l1.676-1.092c-2.729-4.191-4.737-9.03-6.014-14.53l-1.948.452Zm6.286 15.17c2.895 4.445 6.725 7.912 11.475 10.391l.925-1.774c-4.449-2.321-8.019-5.554-10.724-9.709l-1.676 1.092Zm11.483 10.395c4.872 2.487 10.686 3.709 17.405 3.709v-2c-6.481 0-11.967-1.178-16.495-3.491l-.91 1.782Zm17.405 3.709c2.377 0 5.388-.309 9.014-.914l-.328-1.972c-3.574.595-6.463.886-8.686.886v2Zm9.041-.918c3.811-.742 7.468-2.692 10.971-5.782l-1.324-1.5c-3.298 2.91-6.641 4.66-10.029 5.318l.382 1.964Zm11.309-6.532v-22.5h-2v22.5h2Zm0-22.5c0-1.644-.128-3.054-.402-4.207-.272-1.142-.708-2.118-1.391-2.8l-1.414 1.414c.317.318.631.892.859 1.85.226.947.348 2.187.348 3.743h2Zm-1.757-6.969c-.607-.674-1.556-1.206-2.708-1.651-1.173-.453-2.658-.854-4.439-1.211l-.392 1.962c1.719.343 3.083.717 4.111 1.114 1.048.405 1.648.798 1.942 1.124l1.486-1.338Zm-7.132-2.859-7.65-1.65-.422 1.956 7.65 1.65.422-1.956Zm-6.861-.672v-3.3h-2v3.3h2Zm-1-2.3h49.95v-2h-49.95v2Zm48.95-1v3.3h2v-3.3h-2Zm.798 2.321-5.1 1.05.404 1.958 5.1-1.05-.404-1.958Zm-5.1 1.05c-1.735.357-3.2.772-4.377 1.253-1.164.477-2.119 1.047-2.761 1.753l1.48 1.346c.357-.394 1.003-.824 2.039-1.247 1.023-.419 2.358-.804 4.023-1.147l-.404-1.958Zm-7.138 3.006c-.657.723-1.088 1.717-1.359 2.884-.273 1.174-.401 2.594-.401 4.239h2c0-1.555.122-2.81.349-3.786.229-.983.548-1.614.891-1.991l-1.48-1.346Zm-1.76 7.123v28.35h2v-28.35h-2Zm.445 27.518-.45.3 1.11 1.664.45-.3-1.11-1.664Zm.33.158c-1.315-.304-2.402-.512-3.251-.618l-.248 1.984c.751.094 1.764.286 3.049.582l.45-1.948Zm-3.1-.588c-.848-.242-2.173-.338-3.875-.338v2c1.697 0 2.773.104 3.325.262l.55-1.924Zm-3.875-.338c-1.91 0-3.954.318-6.125.938l.55 1.924c2.029-.58 3.885-.862 5.575-.862v-2Zm-6.093.93c-2.029.507-4.254 1.165-6.673 1.971l.632 1.898a89.451 89.451 0 0 1 6.526-1.929l-.485-1.94Zm-6.653 1.965c-2.864.889-6.183 1.731-9.96 2.526l.412 1.958c3.822-.805 7.204-1.663 10.14-2.574l-.592-1.91Zm-9.99 2.533c-3.605.877-7.822 1.322-12.664 1.322v2c4.958 0 9.341-.455 13.136-1.378l-.472-1.944Zm83.673-.078-.353.935.012.005.013.004.328-.944Zm-12.3-7.05-.64.768.011.009.629-.777Zm-8.55-10.65-.894.447.004.009.89-.456Zm-4.65-75-.743.669.018.02.018.018.707-.707Zm-6.6-2.55-.21.978.007.001.007.002.196-.981Zm-7.65-1.65h-1v.807l.79.171.21-.978Zm0-3.3v-1h-1v1h1Zm52.5 0h1v-1h-1v1Zm0 3.3.211.978.789-.171v-.807h-1Zm-7.65 1.65.202.979.009-.001-.211-.978Zm-1.65 80.85-.715.699.715-.699Zm32.1 3.6.476.88.009-.005.009-.005-.494-.87Zm8.7-8.55-.853-.521-.005.008-.005.009.863.504Zm1.2-72.6-.707.707.027.027.03.025.65-.759Zm-6-2.7-.201.98.01.001.009.002.182-.983Zm-10.95-2.25h-1v.815l.799.165.201-.98Zm0-3.3v-1h-1v1h1Zm41.25 0h1v-1h-1v1Zm0 3.3.219.976.781-.175v-.801h-1Zm-8.7 1.95.217.976h.002l-.219-.976Zm-6.15 2.7-.65-.759-.014.012-.014.012.678.735Zm-1.95 76.65v1h1v-1h-1Zm-4.35 1.95.708.707-.708-.707Zm-4.35 4.35-.707-.707-.01.011-.011.011.728.685Zm-6 5.25-.6-.8-.008.006-.008.006.616.788Zm-9.3 4.65.302.954.007-.003.008-.002-.317-.949Zm-14.85.8c-4.686 0-9.275-.781-13.771-2.344l-.657 1.888a43.611 43.611 0 0 0 14.428 2.456v-2Zm-13.746-2.335a43.21 43.21 0 0 1-12.024-6.892l-1.259 1.554a45.172 45.172 0 0 0 12.576 7.208l.707-1.87Zm-12.013-6.883c-3.499-2.916-6.263-6.36-8.301-10.338l-1.78.912c2.163 4.222 5.099 7.878 8.8 10.962l1.281-1.536Zm-8.296-10.329c-2.026-4.052-3.045-8.498-3.045-13.353h-2c0 5.145 1.082 9.899 3.256 14.247l1.789-.894Zm-3.045-13.353v-54.9h-2v54.9h2Zm0-54.9c0-1.644-.127-3.054-.402-4.207-.272-1.142-.708-2.118-1.39-2.8l-1.415 1.414c.318.318.632.892.86 1.85.225.947.347 2.187.347 3.743h2Zm-1.756-6.969c-.607-.674-1.556-1.206-2.708-1.651-1.173-.453-2.659-.854-4.439-1.211l-.393 1.962c1.72.343 3.084.717 4.111 1.114 1.048.405 1.649.798 1.942 1.124l1.487-1.338Zm-7.133-2.859-7.65-1.65-.421 1.956 7.65 1.65.421-1.956Zm-6.861-.672v-3.3h-2v3.3h2Zm-1-2.3h52.5v-2h-52.5v2Zm51.5-1v3.3h2v-3.3h-2Zm.79 2.322-7.65 1.65.421 1.956 7.65-1.65-.421-1.956Zm-7.641 1.649c-1.732.356-3.19.757-4.359 1.209-1.154.446-2.104.97-2.747 1.613l1.415 1.414c.356-.357 1.007-.758 2.053-1.162 1.03-.398 2.372-.772 4.041-1.116l-.403-1.958Zm-7.106 2.822c-.682.682-1.118 1.658-1.39 2.8-.275 1.153-.403 2.563-.403 4.207h2c0-1.556.123-2.796.348-3.743.228-.958.542-1.532.86-1.85l-1.415-1.414Zm-1.793 7.007V418h2v-54.15h-2Zm0 54.15c0 7.701 2.214 13.923 6.735 18.549l1.431-1.398c-4.079-4.174-6.166-9.852-6.166-17.151h-2Zm6.735 18.549c4.551 4.657 11.251 6.901 19.915 6.901v-2c-8.336 0-14.435-2.156-18.484-6.299l-1.431 1.398Zm19.915 6.901c5.039 0 9.507-1.029 13.376-3.12l-.951-1.76c-3.532 1.909-7.663 2.88-12.425 2.88v2Zm13.394-3.13c3.85-2.186 6.879-5.16 9.07-8.916l-1.727-1.008c-2.01 3.444-4.78 6.17-8.33 8.184l.987 1.74Zm9.06-8.899c2.304-3.771 3.446-8.054 3.446-12.821h-2c0 4.433-1.057 8.35-3.153 11.779l1.707 1.042Zm3.446-12.821v-54.75h-2v54.75h2Zm0-54.75c0-2.683-.756-4.858-2.449-6.309l-1.301 1.518c1.107.949 1.75 2.474 1.75 4.791h2Zm-2.392-6.257c-1.498-1.498-3.719-2.457-6.525-2.976l-.365 1.966c2.594.481 4.373 1.322 5.475 2.424l1.415-1.414Zm-6.506-2.973-10.95-2.25-.403 1.96 10.95 2.25.403-1.96Zm-10.152-1.27v-3.3h-2v3.3h2Zm-1-2.3h41.25v-2h-41.25v2Zm40.25-1v3.3h2v-3.3h-2Zm.782 2.324-8.7 1.95.437 1.952 8.7-1.95-.437-1.952Zm-8.699 1.95c-2.786.619-5.012 1.57-6.583 2.917l1.301 1.518c1.229-1.053 3.103-1.902 5.716-2.483l-.434-1.952Zm-6.611 2.941c-1.592 1.47-2.272 3.752-2.272 6.585h2c0-2.567.621-4.185 1.629-5.115l-1.357-1.47Zm-2.272 6.585v70.8h2v-70.8h-2Zm1 69.8c-1.905 0-3.599.786-5.057 2.243l1.415 1.414c1.142-1.143 2.348-1.657 3.642-1.657v-2Zm-5.057 2.243-4.35 4.35 1.415 1.414 4.35-4.35-1.415-1.414Zm-4.371 4.372c-1.551 1.648-3.505 3.36-5.872 5.135l1.2 1.6c2.434-1.825 4.48-3.613 6.129-5.365l-1.457-1.37Zm-5.888 5.147c-2.181 1.708-5.168 3.212-9 4.489l.633 1.898c3.967-1.323 7.181-2.919 9.6-4.811l-1.233-1.576Zm-8.985 4.484c-3.665 1.158-8.503 1.754-14.549 1.754v2c6.154 0 11.217-.604 15.152-1.846l-.603-1.908Zm66.999-.396-.335.942.007.003.007.002.321-.947Zm-14.7-6-.984-.179-.134.738.67.335.448-.894Zm1.05-13.65h-1v.021l1-.021Zm-1.8-14.25v-1h-1.288l.319 1.247.969-.247Zm5.25 0 .996-.08-.074-.92h-.922v1Zm4.65 16.65-.884.469.006.011.006.01.872-.49Zm10.95 11.4-.52.854.011.007.011.006.498-.867Zm25.8 2.4.334.942.013-.004.014-.005-.361-.933Zm7.8-5.7-.764-.646-.007.009-.007.009.778.628Zm.9-19.35-.848.53.007.012.009.013.832-.555Zm-8.25-6.6-.474.88.013.008.013.006.448-.894Zm-16.65-6.75-.323.947.006.002.317-.949Zm-20.85-11.1-.676.737.008.008.668-.745Zm-3.45-33-.866-.5-.004.006.87.494Zm11.4-10.8.475.88.006-.003-.481-.877Zm28.35-3-.305.952.011.004.294-.956Zm6.6 2.55-.448.894.013.006.012.006.423-.906Zm4.05 1.95-.448.894.031.016.032.013.385-.923Zm3.75.75v1h.093l.091-.017-.184-.983Zm4.8-.9.554-.832-.338-.226-.401.075.185.983Zm.45.3.98.196.132-.657-.558-.371-.554.832Zm-.45 3.6.997.071-.997-.071Zm.45 13.05-.992.132.003.019.003.019.986-.17Zm1.35 7.2-.979.206.007.031.008.031.964-.268Zm.75 2.7v1h1.315l-.352-1.268-.963.268Zm-4.05 0-.968.25.193.75h.775v-1Zm-6.45-14.7-.835.55.007.012.008.011.82-.573Zm-9.45-9.45.521-.853-.521.853Zm-21.9-.75-.519-.855-.007.004-.007.005.533.846Zm1.05 29.1-.448.894.01.005.438-.899Zm15.9 6.15-.317.949.004.001.313-.95Zm26.25 17.4.894-.447-.894.447Zm-1.65 29.4-.851-.525-.004.005.855.52Zm-11.85 10.8.44.898.007-.004.007-.003-.454-.891Zm-17.85 2.75c-8.523 0-15.81-1.041-21.88-3.097l-.641 1.894c6.33 2.144 13.844 3.203 22.521 3.203v-2Zm-21.866-3.092c-6.182-2.194-11.039-4.178-14.587-5.952l-.895 1.788c3.653 1.826 8.596 3.842 14.813 6.048l.669-1.884Zm-14.05-4.879c.812-4.469 1.167-9.087 1.065-13.85l-1.999.042c.099 4.637-.247 9.119-1.034 13.45l1.968.358Zm1.066-13.829c0-4.884-.611-9.717-1.831-14.497l-1.938.494a56.413 56.413 0 0 1 1.769 14.003h2Zm-2.8-13.25h5.25v-2h-5.25v2Zm4.253-.92c.51 6.32 2.092 12.005 4.763 17.039l1.767-.938c-2.529-4.766-4.046-10.181-4.537-16.261l-1.993.16Zm4.775 17.06c2.782 4.946 6.552 8.873 11.302 11.764l1.04-1.708c-4.45-2.709-7.981-6.382-10.599-11.036l-1.743.98Zm11.324 11.777c4.879 2.803 10.658 4.183 17.298 4.183v-2c-6.36 0-11.781-1.32-16.302-3.917l-.996 1.734Zm17.298 4.183c3.028 0 6.141-.575 9.334-1.708l-.669-1.884c-3.007 1.067-5.893 1.592-8.665 1.592v2Zm9.361-1.717c3.264-1.264 6.007-3.269 8.217-6.005l-1.556-1.256c-1.991 2.464-4.447 4.259-7.383 5.395l.722 1.866Zm8.202-5.987c2.386-2.82 3.537-6.467 3.537-10.846h-2c0 4.021-1.05 7.174-3.064 9.554l1.527 1.292Zm3.537-10.846c0-3.842-.832-7.1-2.568-9.705l-1.664 1.11c1.463 2.195 2.232 5.037 2.232 8.595h2Zm-2.552-9.68c-1.639-2.622-4.574-4.926-8.651-6.964l-.895 1.788c3.923 1.962 6.488 4.058 7.85 6.236l1.696-1.06Zm-8.624-6.95c-3.974-2.14-9.586-4.411-16.808-6.819l-.633 1.898c7.179 2.392 12.666 4.621 16.493 6.681l.948-1.76Zm-16.802-6.817c-9.029-3.076-15.842-6.72-20.505-10.898l-1.335 1.49c4.937 4.422 12.025 8.178 21.195 11.302l.645-1.894Zm-20.497-10.89c-4.547-4.169-6.875-10.074-6.875-17.863h-2c0 8.211 2.471 14.706 7.524 19.337l1.351-1.474Zm-6.875-17.863c0-5.032 1.207-9.661 3.619-13.906l-1.739-.988c-2.588 4.555-3.88 9.526-3.88 14.894h2Zm3.616-13.9c2.498-4.325 6.156-7.8 11.009-10.42l-.95-1.76c-5.148 2.78-9.09 6.505-11.791 11.18l1.732 1Zm11.015-10.423c4.919-2.701 10.945-4.077 18.119-4.077v-2c-7.426 0-13.801 1.424-19.082 4.323l.963 1.754Zm18.119-4.077c3.944 0 7.081.396 9.445 1.152l.609-1.904c-2.635-.844-5.999-1.248-10.054-1.248v2Zm9.456 1.156c2.564.789 4.709 1.62 6.446 2.488l.895-1.788c-1.863-.932-4.118-1.801-6.753-2.612l-.588 1.912Zm6.471 2.5c1.493.697 2.835 1.343 4.025 1.938l.895-1.788a169.363 169.363 0 0 0-4.074-1.962l-.846 1.812Zm4.088 1.967c1.322.551 2.703.827 4.135.827v-2a8.663 8.663 0 0 1-3.366-.673l-.769 1.846Zm4.319.81 4.8-.9-.369-1.966-4.8.9.369 1.966Zm4.061-1.051.45.3 1.109-1.664-.45-.3-1.109 1.664Zm.024-.728c-.211 1.053-.365 2.297-.467 3.725l1.995.142c.098-1.372.244-2.528.433-3.475l-1.961-.392Zm-.467 3.725a56.213 56.213 0 0 0-.152 3.971h2c0-1.173.049-2.449.147-3.829l-1.995-.142Zm-.152 3.971c0 3.143.202 6.237.608 9.282l1.983-.264a68.163 68.163 0 0 1-.591-9.018h-2Zm.614 9.32c.501 2.907.954 5.32 1.357 7.236l1.957-.412a206.888 206.888 0 0 1-1.343-7.164l-1.971.34Zm1.372 7.298.003.01.003.011.003.01.003.011.003.01.003.011a.126.126 0 0 1 .005.02l.003.011.003.01a.126.126 0 0 0 .003.01l.003.011.003.01.003.01.002.011.003.01.003.01.003.01a.126.126 0 0 0 .003.01.126.126 0 0 0 .003.01l.002.011.003.01.003.01a.126.126 0 0 1 .003.01l.003.01.002.01.003.01.003.01.003.01a.03.03 0 0 1 .002.01l.003.01.003.01.003.009.002.01.003.01.003.01.003.01.002.01.003.009a.126.126 0 0 0 .003.01.036.036 0 0 1 .002.01l.003.009.003.01.003.01.002.009a.126.126 0 0 0 .003.01.126.126 0 0 1 .005.019l.003.01.002.009.003.01.003.009a.036.036 0 0 1 .002.01l.003.009.003.01.002.009.003.009a.036.036 0 0 1 .002.01l.003.009.003.009.002.01.003.009.002.009.003.009.003.01a.03.03 0 0 0 .002.009l.003.009a.03.03 0 0 0 .002.009l.003.009.002.009.003.01.002.009.003.009.002.009.003.009.002.009.003.009.002.009.003.009.002.008.003.009.002.009.003.009a.03.03 0 0 0 .002.009l.003.009.002.008.002.009.003.009.002.009a.069.069 0 0 0 .003.008.03.03 0 0 0 .002.009l.002.009a.069.069 0 0 0 .003.008l.002.009.003.009.002.008.002.009.003.008.002.009a.069.069 0 0 0 .003.008.03.03 0 0 0 .002.009l.002.008.003.009.002.008.002.009.003.008.002.008.002.009a.069.069 0 0 1 .003.008l.002.008.002.008.002.009a.069.069 0 0 1 .003.008l.002.008.002.008.003.008.002.009.002.008a.019.019 0 0 1 .002.008l.003.008.002.008.002.008.002.008.002.008.003.008.002.008.002.008.002.008.002.008a.069.069 0 0 1 .003.008.03.03 0 0 0 .002.008l.002.007.002.008.002.008.003.008a.03.03 0 0 0 .002.008l.002.007.002.008.002.008a.019.019 0 0 1 .002.007l.002.008.002.008.003.007.002.008.002.007.002.008.002.007.002.008.002.007.002.008a.019.019 0 0 1 .002.007l.002.008a.019.019 0 0 1 .002.007l.002.008.003.007.002.007.002.008.002.007.002.007.002.007.002.008.002.007.002.007.002.007.002.007.002.008.002.007.002.007.002.007.002.007.001.007a.019.019 0 0 1 .002.007.019.019 0 0 1 .002.007.019.019 0 0 1 .002.007.019.019 0 0 1 .002.007.019.019 0 0 1 .002.007l.002.007.002.007.002.007.002.006.002.007.002.007.001.007.002.007.002.006.002.007.002.007.002.006.002.007.002.007.001.006.002.007.002.007.002.006.002.007.001.006.002.007.002.006.002.007.002.006.001.006.002.007.002.006.002.007.002.006.001.006.002.007.002.006.001.006.002.006.002.006.002.007.001.006a.014.014 0 0 1 .002.006l.002.006.001.006a.014.014 0 0 1 .002.006l.002.006.002.006.001.006.002.006.002.006.001.006.002.006.002.006.001.006.002.006.001.006.002.006.002.006.001.005.002.006.001.006.002.006.002.005.001.006.002.006.001.005.002.006.001.006a.008.008 0 0 1 .002.005l.002.006.001.005.002.006.001.005.002.006.001.005.002.006.001.005.002.006.001.005.002.005.001.006.002.005.001.005.002.006.001.005.002.005.001.005.001.006.002.005.001.005.002.005.001.005.002.005.001.005.001.005.002.005.001.005.002.005.001.005.001.005.002.005.001.005.001.005.002.005.001.005.002.005.001.004.001.005.001.005.002.005.001.005.001.004.002.005.001.005.001.004.002.005.001.004.001.005.001.005.002.004.001.005.001.004a.009.009 0 0 1 .001.005l.002.004.001.005.001.004.001.004.002.005.001.004.001.004.001.005.001.004.002.004.001.005.001.004.001.004.001.004a.008.008 0 0 1 .001.004l.002.005.001.004.001.004.001.004.001.004.001.004.001.004.001.004.002.004.001.004.001.004.001.004.001.004.001.004.001.003.001.004a.008.008 0 0 1 .001.004l.001.004.001.004.001.003a.008.008 0 0 1 .001.004l.001.004.001.004.002.003.001.004.001.004.001.003.001.004.001.003.001.004.001.003v.004l.001.003a.008.008 0 0 1 .001.004l.001.003a.008.008 0 0 1 .001.004l.001.003.001.004.001.003.001.003.001.004.001.003.001.003.001.004.001.003.001.003v.003l.001.003.001.004.001.003.001.003.001.003.001.003v.003l.001.003.001.003.001.003.001.003.001.003v.003l.001.003.001.003.001.003.001.002v.003l.001.003.001.003.001.003.001.002v.003l.001.003.001.003.001.002v.003l.001.003.001.002v.003l.001.002.001.003.001.002v.003l.001.002.001.003v.002l.001.003.001.002v.002l.001.003.001.002v.002l.001.003.001.002v.002l.001.003v.002l.001.002.001.002v.002l.001.002v.002l.001.003.001.002v.002l.001.002v.002l.001.002v.002l.001.002v.002l.001.001v.002l.001.002v.002l.001.002.001.002v.003l.001.002v.002l.001.001v.002l.001.002v.001l.001.002v.002l.001.001v.003l.001.002v.001l.001.002v.001l.001.002v.002l.001.002v.002l.001.002v.001l.001.001v.003l.001.001v.002l.001.001v.004l.001.001v.002l.001.001v.003l.001.001v.002l.001.001v.003l.001.001v.003h.001v.003l.001.001v.003h.001v.003l.964-.268.963-.268v-.002h-.001v-.004H712v-.003l-.001-.001v-.002l-.001-.001v-.003l-.001-.001v-.003l-.001-.001v-.002l-.001-.001v-.002l-.001-.001v-.004l-.001-.001v-.002l-.001-.001v-.003l-.001-.001v-.002l-.001-.001v-.003l-.001-.001v-.003l-.001-.001v-.002l-.001-.001v-.003l-.001-.002v-.001l-.001-.002v-.001l-.001-.002v-.002l-.001-.001v-.002l-.001-.002v-.003l-.001-.002v-.002l-.001-.001v-.002l-.001-.002v-.002l-.001-.002-.001-.002v-.002l-.001-.002v-.002l-.001-.002v-.002l-.001-.002v-.002l-.001-.002-.001-.002v-.002l-.001-.002v-.002l-.001-.002-.001-.003v-.002l-.001-.002v-.002l-.001-.003-.001-.002v-.002l-.001-.003-.001-.002v-.002l-.001-.003-.001-.002v-.003l-.001-.002-.001-.002v-.003l-.001-.002-.001-.003-.001-.003v-.002l-.001-.003-.001-.002v-.003l-.001-.003-.001-.002-.001-.003v-.003l-.001-.003-.001-.002-.001-.003-.001-.003v-.003l-.001-.003-.001-.003-.001-.002v-.003l-.001-.003-.001-.003-.001-.003-.001-.003-.001-.003v-.003l-.001-.003-.001-.003-.001-.003-.001-.004-.001-.003-.001-.003-.001-.003v-.003l-.001-.004-.001-.003-.001-.003-.001-.003-.001-.004-.001-.003-.001-.003-.001-.004-.001-.003-.001-.003-.001-.004-.001-.003-.001-.004v-.003l-.001-.004-.001-.003-.001-.004-.001-.003-.001-.004-.001-.004-.001-.003-.001-.004-.001-.004-.002-.003-.001-.004-.001-.004-.001-.004-.001-.003-.001-.004-.001-.004-.001-.004-.001-.004-.001-.004-.001-.003-.001-.004-.001-.004-.001-.004-.001-.004-.002-.004-.001-.004-.001-.004-.001-.004-.001-.005-.001-.004-.001-.004-.002-.004-.001-.004-.001-.004-.001-.004-.001-.005-.001-.004-.002-.004-.001-.005-.001-.004-.001-.004-.001-.005-.002-.004-.001-.004-.001-.005-.001-.004-.002-.005-.001-.004-.001-.005-.001-.004-.002-.005-.001-.004-.001-.005-.001-.004-.002-.005-.001-.005-.001-.004-.002-.005-.001-.005-.001-.004-.001-.005-.002-.005-.001-.005-.001-.005-.002-.004-.001-.005-.002-.005-.001-.005-.001-.005-.002-.005-.001-.005-.001-.005-.002-.005-.001-.005-.002-.005-.001-.005-.001-.005-.002-.005-.001-.005-.002-.005-.001-.006-.001-.005-.002-.005-.001-.005-.002-.005-.001-.006-.002-.005-.001-.005-.002-.006-.001-.005-.002-.005-.001-.006-.002-.005-.001-.005-.002-.006-.001-.005-.002-.006-.001-.005-.002-.006-.001-.005-.002-.006-.001-.006-.002-.005-.002-.006-.001-.006-.002-.005-.001-.006-.002-.006-.002-.005-.001-.006-.002-.006-.001-.006-.002-.006a.017.017 0 0 0-.002-.005l-.001-.006-.002-.006-.001-.006a.014.014 0 0 1-.002-.006l-.002-.006-.001-.006a.014.014 0 0 1-.002-.006l-.002-.006-.001-.006-.002-.006-.002-.006-.001-.006a.014.014 0 0 1-.002-.006l-.002-.006-.002-.006-.001-.007-.002-.006-.002-.006-.001-.006-.002-.007-.002-.006-.002-.006-.001-.006a.019.019 0 0 1-.002-.007l-.002-.006-.002-.006-.002-.007-.001-.006-.002-.007-.002-.006-.002-.007-.001-.006-.002-.007-.002-.006-.002-.007-.002-.006-.002-.007-.001-.007-.002-.006a.019.019 0 0 1-.002-.007l-.002-.007-.002-.006a.019.019 0 0 0-.002-.007l-.002-.007-.001-.006-.002-.007-.002-.007a.019.019 0 0 1-.002-.007l-.002-.007-.002-.007-.002-.007-.002-.006-.002-.007a.014.014 0 0 0-.002-.007.014.014 0 0 0-.002-.007l-.002-.007-.001-.007-.002-.007-.002-.007-.002-.007-.002-.008a.014.014 0 0 1-.002-.007l-.002-.007a.019.019 0 0 1-.002-.007.019.019 0 0 1-.002-.007l-.002-.007-.002-.008-.002-.007a.019.019 0 0 1-.002-.007l-.002-.007-.002-.008a.019.019 0 0 1-.002-.007.019.019 0 0 1-.002-.007l-.002-.008-.003-.007-.002-.007-.002-.008a.019.019 0 0 0-.002-.007l-.002-.008a.019.019 0 0 0-.002-.007l-.002-.008-.002-.007-.002-.008a.019.019 0 0 1-.002-.007.03.03 0 0 1-.002-.008l-.002-.008-.003-.007-.002-.008-.002-.008-.002-.007-.002-.008-.002-.008a.019.019 0 0 1-.002-.008l-.003-.007a.019.019 0 0 0-.002-.008l-.002-.008-.002-.008a.019.019 0 0 1-.002-.008.069.069 0 0 0-.005-.015.019.019 0 0 0-.002-.008l-.002-.008-.002-.008a.069.069 0 0 0-.003-.008.019.019 0 0 0-.002-.008.019.019 0 0 0-.002-.008l-.002-.008a.03.03 0 0 1-.002-.008.069.069 0 0 0-.003-.008l-.002-.009-.002-.008a.019.019 0 0 1-.002-.008l-.003-.008-.002-.008-.002-.008-.003-.009-.002-.008-.002-.008-.002-.008-.003-.009-.002-.008-.002-.008-.003-.009-.002-.008-.002-.009-.003-.008-.002-.008a.03.03 0 0 1-.002-.009l-.003-.008-.002-.009-.003-.009a.03.03 0 0 0-.002-.008.03.03 0 0 1-.002-.009l-.003-.008-.002-.009-.002-.009-.003-.008-.002-.009-.003-.009-.002-.008-.003-.009a.03.03 0 0 0-.002-.009l-.002-.009-.003-.008-.002-.009-.003-.009-.002-.009-.003-.009-.002-.009-.003-.009-.002-.009-.003-.009-.002-.009-.003-.009-.002-.009-.003-.009-.002-.009-.003-.009-.002-.009-.003-.009-.002-.009-.003-.009a.036.036 0 0 1-.002-.01l-.003-.009-.003-.009-.002-.009-.003-.01-.002-.009-.003-.009-.003-.01-.002-.009-.003-.009-.002-.01-.003-.009a.126.126 0 0 1-.005-.019.126.126 0 0 1-.003-.01l-.002-.009a.126.126 0 0 1-.003-.01l-.003-.009a.036.036 0 0 1-.002-.01l-.003-.009-.003-.01a.03.03 0 0 1-.002-.01l-.003-.009-.003-.01-.002-.01-.003-.009-.003-.01-.003-.01-.002-.01-.003-.009a.126.126 0 0 0-.003-.01l-.003-.01a.036.036 0 0 0-.002-.01l-.003-.01-.003-.01-.002-.01-.003-.009-.003-.01a.126.126 0 0 0-.003-.01l-.003-.01a.03.03 0 0 0-.002-.01l-.003-.01-.003-.011-.003-.01a.126.126 0 0 1-.003-.01l-.002-.01-.003-.01-.003-.01a.126.126 0 0 0-.003-.01l-.003-.011-.003-.01a.036.036 0 0 0-.002-.01l-.003-.01-.003-.011a.126.126 0 0 1-.003-.01l-.003-.01-.003-.011-.003-.01-.002-.01-.003-.011-.003-.01-.003-.011-.003-.01-.003-.011-.003-.01-.003-.011-1.927.536Zm1.714 1.432h-4.05v2h4.05v-2Zm-3.082.75c-1.524-5.891-3.717-10.906-6.599-15.023l-1.639 1.146c2.718 3.883 4.825 8.668 6.302 14.377l1.936-.5Zm-6.583-15c-2.768-4.203-6.019-7.465-9.764-9.753l-1.043 1.706c3.456 2.112 6.504 5.15 9.137 9.147l1.67-1.1Zm-9.764-9.753c-3.76-2.298-7.891-3.447-12.371-3.447v2c4.119 0 7.888 1.051 11.328 3.153l1.043-1.706Zm-12.371-3.447c-4.048 0-7.585.883-10.569 2.695l1.038 1.71c2.616-1.589 5.779-2.405 9.531-2.405v-2Zm-10.583 2.704c-2.834 1.784-5.009 4.058-6.498 6.822l1.761.948c1.312-2.436 3.236-4.462 5.802-6.078l-1.065-1.692Zm-6.498 6.822c-1.474 2.737-2.219 5.599-2.219 8.574h2c0-2.625.654-5.163 1.98-7.626l-1.761-.948Zm-2.219 8.574c0 3.615.67 6.658 2.089 9.059l1.722-1.018c-1.182-1.999-1.811-4.656-1.811-8.041h-2Zm2.089 9.059c1.439 2.435 4.082 4.545 7.763 6.385l.895-1.788c-3.519-1.76-5.776-3.65-6.936-5.615l-1.722 1.018Zm7.773 6.39c3.758 1.829 9.106 3.895 16.021 6.2l.633-1.898c-6.885-2.295-12.137-4.329-15.779-6.1l-.875 1.798Zm16.025 6.201c7.254 2.385 12.911 4.951 17.008 7.682l1.109-1.664c-4.303-2.869-10.146-5.503-17.492-7.918l-.625 1.9Zm17.008 7.682c4.091 2.728 6.955 5.806 8.66 9.215l1.789-.894c-1.895-3.791-5.031-7.113-9.34-9.985l-1.109 1.664Zm8.66 9.215c1.716 3.432 2.595 7.571 2.595 12.453h2c0-5.118-.922-9.579-2.806-13.347l-1.789.894Zm2.595 12.453c0 6.141-1.412 11.454-4.201 15.975l1.702 1.05c3.01-4.879 4.499-10.566 4.499-17.025h-2Zm-4.205 15.98c-2.697 4.432-6.504 7.908-11.45 10.429l.909 1.782c5.254-2.679 9.347-6.403 12.25-11.171l-1.709-1.04Zm-11.435 10.422c-4.939 2.421-10.733 3.648-17.41 3.648v2c6.922 0 13.028-1.273 18.29-3.852l-.88-1.796Z" mask="url(#a)"/>
</svg>